<?xml version="1.0" encoding="UTF-8" standalone="no"?>
<svg
   width="1024"
   height="1024"
   viewBox="0 0 1024 1024"
   version="1.1"
   id="svg8"
   xml:space="preserve"
   xmlns="http://www.w3.org/2000/svg"
   xmlns:svg="http://www.w3.org/2000/svg"
   xmlns:rdf="http://www.w3.org/1999/02/22-rdf-syntax-ns#"
   xmlns:cc="http://creativecommons.org/ns#"
   xmlns:dc="http://purl.org/dc/elements/1.1/"><defs
     id="defs2" /><metadata
     id="metadata5"><rdf:RDF><cc:Work
         rdf:about=""><dc:format>image/svg+xml</dc:format><dc:type
           rdf:resource="http://purl.org/dc/dcmitype/StillImage" /></cc:Work></rdf:RDF></metadata><path
     style="color:#000000;fill:#ffffff;fill-opacity:1;stroke-width:1.38374;stroke-linecap:round;paint-order:fill markers stroke"
     d="M 38.729215,332.13396 A 43.983357,44.582062 75.001511 0 0 22.269528,337.76647 43.983357,44.582062 75.001511 0 0 5.9692958,398.01056 C 71.933695,510.49441 173.30596,595.62037 291.66787,643.0437 l 69.17394,-69.17394 C 245.36661,537.34883 145.54577,459.92616 83.119017,353.47479 A 43.983357,44.582062 75.001511 0 0 38.729215,332.13396 Z"
     id="path1752" /><path
     style="color:#000000;fill:#ffffff;fill-opacity:1;stroke-width:1.38374;stroke-linecap:round;paint-order:fill markers stroke"
     d="m 985.42351,332.0772 a 43.983357,44.582062 75.001511 0 0 -44.46278,21.78409 c -88.39148,150.72695 -251.59428,243.56285 -428.65734,243.56286 -15.90417,0 -31.645,-1.00877 -47.28714,-2.48383 l -77.34974,77.34974 c 40.30403,8.62634 81.83386,13.18127 124.03416,13.18127 208.62215,-2e-5 401.80459,-109.73235 506.25573,-287.84457 a 43.983357,44.582062 75.001511 0 0 -16.0948,-60.08192 43.983357,44.582062 75.001511 0 0 -16.43809,-5.46764 z"
     id="path4949" /><path
     style="color:#000000;fill:#ffffff;fill-opacity:1;stroke-width:1.38374;stroke-linecap:round;paint-order:fill markers stroke"
     d="m 871.69489,188.26168 -62.94682,62.94683 c 52.83717,38.90244 98.12582,88.29729 132.20996,146.41825 a 44.582047,43.983342 14.998489 0 0 60.90087,16.31375 44.582047,43.983342 14.998489 0 0 16.1002,-60.07922 C 979.84562,288.8694 929.87674,233.03577 871.69489,188.26168 Z"
     id="path1756" /><path
     style="color:#000000;fill:#ffffff;fill-opacity:1;stroke-width:1.38374;stroke-linecap:round;paint-order:fill markers stroke"
     d="m 511.69798,66.014021 c -208.62215,0 -401.42032,109.587399 -505.7313826,287.460769 A 44.582047,43.983342 14.998489 0 0 22.272226,413.71888 44.582047,43.983342 14.998489 0 0 83.116319,398.01056 C 171.64783,247.04478 335.23763,154.0612 512.30069,154.0612 c 77.1076,10e-6 151.57241,17.6337 218.38954,49.96016 l 65.23874,-65.23875 C 710.37733,91.884723 612.86992,66.014021 511.69798,66.014021 Z"
     id="use5338" /><path
     id="path1086"
     style="color:#000000;fill:#ffffff;fill-opacity:1;stroke-width:88.5637;stroke-linecap:round;paint-order:fill markers stroke"
     d="m 512.00068,242.89758 c -73.36832,0 -132.84509,59.47677 -132.84509,132.8451 0.31885,46.94157 25.38806,90.22987 65.94416,113.86915 L 626.35633,308.35524 C 602.5068,267.83714 559.01679,242.94327 512.00068,242.89758 Z" /><path
     style="fill:none;stroke:#ffffff;stroke-width:48;stroke-linecap:butt;stroke-linejoin:miter;stroke-miterlimit:4;stroke-dasharray:none;stroke-opacity:1"
     d="M 257.44156,766.55844 766.55844,257.44156"
     id="path1555-5"
     transform="matrix(1.3838031,0,0,1.3838031,-196.50651,-332.76451)" /><path
     d="m 388.57097,832.00014 c -45.44503,0 -82.28571,36.84069 -82.28571,82.28571 v 82.28572 h 54.85714 v -82.28572 c 0,-15.14825 12.28032,-27.42857 27.42857,-27.42857 h 27.42857 v -54.85714 z"
     style="fill:#ffffff;fill-opacity:1;stroke-width:27.4286"
     id="path1-2-8" /><path
     d="m 149.9424,832.00014 h 54.85714 c 98.74286,0 98.74286,148.11428 0,148.11428 v 43.88568 H 149.9424 Z m 54.85714,101.48571 c 36.57134,0 36.57134,-54.85714 0,-54.85714 z"
     style="fill:#ffffff;fill-opacity:1;stroke-width:27.4286"
     id="path1-42-9" /><path
     d="m 607.99954,832.00014 h 54.85714 c 98.74286,0 98.74286,148.11428 0,148.11428 v 43.88568 h -54.85714 z m 54.85714,101.48571 c 36.57134,0 36.57134,-54.85714 0,-54.85714 z"
     style="fill:#ffffff;fill-opacity:1;stroke-width:27.4286"
     id="path1-42-2-2" /><path
     d="m 819.19954,832.00014 c -73.14295,0 -73.14295,109.71429 0,109.71429 h -54.85715 v 54.85714 h 54.85715 c 73.14294,0 73.14294,-109.71429 0,-109.71429 h 54.85714 v -54.85714 z"
     style="fill:#ffffff;fill-opacity:1;stroke-width:27.4286"
     id="path1-68-7" /><path
     d="m 443.42811,886.85728 v 54.85715 c 0,30.29677 24.56037,54.85714 54.85714,54.85714 h 27.42858 c 30.29677,0 54.85714,-24.56037 54.85714,-54.85714 v -54.85715 c 0,-30.29677 -24.56037,-54.85714 -54.85714,-54.85714 h -27.42858 c -30.29677,0 -54.85714,24.56037 -54.85714,54.85714 z m 54.85714,0 h 27.42858 v 54.85715 h -27.42858 z"
     style="fill:#ffffff;fill-opacity:1;stroke-width:27.4286"
     id="path1-43" /></svg>
