<?xml version="1.0" encoding="UTF-8"?>
<svg id="_图层_1" data-name="图层 1" xmlns="http://www.w3.org/2000/svg" viewBox="0 0 16 16">
  <defs>
    <style>
      .cls-1 {
        fill: #8eef97;
      }
    </style>
  </defs>
  <path class="cls-1" d="M2,1c-.55,0-1,.45-1,1v12c0,.55.45,1,1,1h12c.55,0,1-.45,1-1V2c0-.55-.45-1-1-1H2ZM3,3h10v8H3V3Z"/>
  <g>
    <path class="cls-1" d="M5.46,7.36v-.74h1.69v1.51c-.32.22-.61.37-.86.45s-.54.12-.89.12c-.42,0-.76-.07-1.03-.22-.27-.14-.47-.36-.62-.64-.15-.28-.22-.61-.22-.98,0-.39.08-.72.24-1.01s.39-.5.7-.65c.24-.11.56-.17.97-.17s.69.04.88.11.36.18.48.33c.13.15.22.34.29.57l-1.06.19c-.04-.13-.12-.24-.22-.31s-.24-.11-.4-.11c-.24,0-.43.08-.57.25-.14.17-.21.43-.21.79,0,.38.07.66.22.82.14.16.35.25.6.25.12,0,.24-.02.35-.05s.24-.1.38-.18v-.33h-.73s.01,0,.01,0Z"/>
    <path class="cls-1" d="M7.85,5.1h1.1v3.55h-1.1s0-3.55,0-3.55Z"/>
    <path class="cls-1" d="M9.74,5.1h2.71v.76h-1.61v.62h1.38v.72h-1.38v1.45h-1.1s0-3.55,0-3.55Z"/>
  </g>
</svg>