<?xml version="1.0" encoding="UTF-8" standalone="no"?>
<svg
   width="1024"
   height="1024"
   viewBox="0 0 1024 1024"
   version="1.1"
   id="svg8"
   xml:space="preserve"
   xmlns="http://www.w3.org/2000/svg"
   xmlns:svg="http://www.w3.org/2000/svg"
   xmlns:rdf="http://www.w3.org/1999/02/22-rdf-syntax-ns#"
   xmlns:cc="http://creativecommons.org/ns#"
   xmlns:dc="http://purl.org/dc/elements/1.1/"><defs
     id="defs2" /><metadata
     id="metadata5"><rdf:RDF><cc:Work
         rdf:about=""><dc:format>image/svg+xml</dc:format><dc:type
           rdf:resource="http://purl.org/dc/dcmitype/StillImage" /></cc:Work></rdf:RDF></metadata><path
     id="rect956-2"
     style="fill:#ffffff;fill-opacity:1;stroke-width:0;stroke-linecap:square;paint-order:fill markers stroke;stop-color:#000000"
     d="M 1024,5.0000006e-7 921.2679,102.73214 C 855.51065,36.97491 766.5128,1.3889785 675.23887,2.3325905 654.17566,2.5503505 632.98998,4.7128455 611.942,8.8995535 529.77759,25.243074 457.4933,70.87245 407.46879,135.62501 c 21.80234,19.136 35.56473,47.20899 35.56473,78.49776 -0.0185,10.87361 -1.83673,21.34374 -5.17411,31.23437 l 8.68081,3.59598 c 32.15536,-77.6299 100.82737,-133.98903 183.23883,-150.38169 82.41103,-16.39257 167.42175,9.39779 226.83706,68.8125 L 753.88397,270.11607 H 1024 Z M 437.85941,245.35714 362.07146,213.96429 c 11.74111,-28.34556 27.0766,-54.62464 45.39733,-78.33928 -18.37826,-16.13067 -42.46891,-25.91072 -68.84375,-25.91072 -57.6636,0 -104.41072,46.74489 -104.41072,104.40848 0.0619,36.41364 20.30404,68.3016 50.21652,89.06697 10.81571,7.50832 1.93298,43.56249 -23.81027,43.56249 H 67.72549 c -37.519591,0 -67.7255,30.20364 -67.7255,67.72322 v 192.89732 c 0,25.74334 36.05425,34.62384 43.56255,23.80803 20.76544,-29.91238 52.65105,-50.15221 89.06473,-50.21429 57.66363,0 104.41071,46.74486 104.41071,104.40848 0,57.66365 -46.74709,104.41073 -104.41071,104.41073 C 96.21358,789.72372 64.32799,769.48159 43.56254,739.5692 36.05425,728.75341 -1e-5,737.63625 -1e-5,763.37946 V 956.2745 c 0,37.5197 30.205909,67.7255 67.7255,67.7255 h 192.89508 c 25.74334,0 34.62606,-36.0542 23.81027,-43.5625 -29.91239,-20.7654 -50.15444,-52.65102 -50.21652,-89.06473 0,-57.66361 46.7471,-104.41071 104.41072,-104.41071 57.66365,0 104.40848,46.7471 104.40848,104.41071 -0.0621,36.41371 -20.30191,68.29933 -50.21428,89.06473 -10.81581,7.5083 -1.93518,43.5625 23.80803,43.5625 h 192.89731 c 37.51957,0 67.72323,-30.2058 67.72323,-67.7255 V 763.37946 c 0,-25.74321 36.05419,-34.62605 43.56249,-23.81026 20.76543,29.91239 52.65328,50.15457 89.06697,50.21652 57.66362,0 104.40848,-46.74708 104.40848,-104.41073 0,-26.3791 -9.78208,-50.47329 -25.9174,-68.85267 -41.30639,31.90047 -89.9457,54.43397 -142.64956,64.91742 -21.04798,4.18674 -42.23367,6.34924 -63.29688,6.56696 -91.27393,0.94365 -180.27178,-34.64232 -246.02902,-100.39956 L 333.66074,690.33929 V 420.22321 H 603.77682 L 501.04245,522.95759 c 47.26765,47.26719 110.73488,73.25129 176.20536,73.64732 V 414.47545 c 0,-37.51958 -30.20365,-67.72322 -67.72323,-67.72322 H 416.62727 c -25.74321,0 -34.62384,-36.05417 -23.80803,-43.56249 20.98013,-14.56455 37.20129,-34.6014 45.04017,-57.8326 z m 239.3884,351.24777 v 10.76786 c 0,25.74334 36.05419,34.62384 43.56249,23.80803 20.76543,-29.91238 52.65328,-50.15223 89.06697,-50.21429 31.28452,0 59.35525,13.75863 78.49108,35.55581 46.67358,-36.04551 83.98496,-84.05054 107.22096,-140.14733 l -84.46874,-34.98883 c -32.15536,77.6299 -100.82739,133.98903 -183.23884,150.3817 -16.84919,3.35151 -33.80821,4.93883 -50.63392,4.83705 z" /></svg>
